<mxfile host="app.diagrams.net" modified="2023-10-13T16:22:56.290Z" agent="Mozilla/5.0 (Windows NT 10.0; Win64; x64) AppleWebKit/537.36 (KHTML, like Gecko) Chrome/117.0.0.0 Safari/537.36" etag="dd-DXN0rarkWFnK3sBpY" version="22.0.4" type="github">
  <diagram name="Página-1" id="NpFbinLvYvqBeYNdAWcx">
    <mxGraphModel dx="2261" dy="1919" grid="1" gridSize="10" guides="1" tooltips="1" connect="1" arrows="1" fold="1" page="1" pageScale="1" pageWidth="827" pageHeight="1169" math="0" shadow="0">
      <root>
        <mxCell id="0" />
        <mxCell id="1" parent="0" />
        <mxCell id="lTyuXlJloFRDc_WDD8Is-1" value="Socio" style="whiteSpace=wrap;html=1;align=center;" vertex="1" parent="1">
          <mxGeometry x="140" y="180" width="100" height="40" as="geometry" />
        </mxCell>
        <mxCell id="lTyuXlJloFRDc_WDD8Is-2" value="Articulo" style="whiteSpace=wrap;html=1;align=center;" vertex="1" parent="1">
          <mxGeometry x="525" y="380" width="100" height="40" as="geometry" />
        </mxCell>
        <mxCell id="lTyuXlJloFRDc_WDD8Is-3" value="Pelicula" style="whiteSpace=wrap;html=1;align=center;" vertex="1" parent="1">
          <mxGeometry x="640" y="610" width="100" height="40" as="geometry" />
        </mxCell>
        <mxCell id="lTyuXlJloFRDc_WDD8Is-4" value="CD" style="whiteSpace=wrap;html=1;align=center;" vertex="1" parent="1">
          <mxGeometry x="530" y="610" width="100" height="40" as="geometry" />
        </mxCell>
        <mxCell id="lTyuXlJloFRDc_WDD8Is-5" value="Libro" style="whiteSpace=wrap;html=1;align=center;" vertex="1" parent="1">
          <mxGeometry x="420" y="610" width="100" height="40" as="geometry" />
        </mxCell>
        <mxCell id="lTyuXlJloFRDc_WDD8Is-7" value="Año" style="ellipse;whiteSpace=wrap;html=1;align=center;" vertex="1" parent="1">
          <mxGeometry x="680" y="420" width="100" height="40" as="geometry" />
        </mxCell>
        <mxCell id="lTyuXlJloFRDc_WDD8Is-8" value="Sinopsis" style="ellipse;whiteSpace=wrap;html=1;align=center;" vertex="1" parent="1">
          <mxGeometry x="650" y="470" width="100" height="40" as="geometry" />
        </mxCell>
        <mxCell id="lTyuXlJloFRDc_WDD8Is-9" value="Nombre" style="ellipse;whiteSpace=wrap;html=1;align=center;" vertex="1" parent="1">
          <mxGeometry x="420" y="440" width="100" height="40" as="geometry" />
        </mxCell>
        <mxCell id="lTyuXlJloFRDc_WDD8Is-10" value="Autor" style="whiteSpace=wrap;html=1;align=center;" vertex="1" parent="1">
          <mxGeometry x="525" y="10" width="100" height="40" as="geometry" />
        </mxCell>
        <mxCell id="lTyuXlJloFRDc_WDD8Is-11" value="Nombre" style="ellipse;whiteSpace=wrap;html=1;align=center;" vertex="1" parent="1">
          <mxGeometry x="457.5" y="-60" width="100" height="40" as="geometry" />
        </mxCell>
        <mxCell id="lTyuXlJloFRDc_WDD8Is-12" value="Pais" style="ellipse;whiteSpace=wrap;html=1;align=center;" vertex="1" parent="1">
          <mxGeometry x="592.5" y="-60" width="100" height="40" as="geometry" />
        </mxCell>
        <mxCell id="lTyuXlJloFRDc_WDD8Is-13" value="Num paginas" style="ellipse;whiteSpace=wrap;html=1;align=center;" vertex="1" parent="1">
          <mxGeometry x="420" y="680" width="100" height="40" as="geometry" />
        </mxCell>
        <mxCell id="lTyuXlJloFRDc_WDD8Is-14" value="Num canciones" style="ellipse;whiteSpace=wrap;html=1;align=center;" vertex="1" parent="1">
          <mxGeometry x="530" y="680" width="100" height="40" as="geometry" />
        </mxCell>
        <mxCell id="lTyuXlJloFRDc_WDD8Is-15" value="Duracion" style="ellipse;whiteSpace=wrap;html=1;align=center;" vertex="1" parent="1">
          <mxGeometry x="640" y="680" width="100" height="40" as="geometry" />
        </mxCell>
        <mxCell id="lTyuXlJloFRDc_WDD8Is-16" value="Deterioro" style="whiteSpace=wrap;html=1;align=center;" vertex="1" parent="1">
          <mxGeometry x="980" y="380" width="100" height="40" as="geometry" />
        </mxCell>
        <mxCell id="lTyuXlJloFRDc_WDD8Is-17" value="Estado" style="ellipse;whiteSpace=wrap;html=1;align=center;" vertex="1" parent="1">
          <mxGeometry x="1160" y="430" width="100" height="40" as="geometry" />
        </mxCell>
        <mxCell id="lTyuXlJloFRDc_WDD8Is-18" value="Comentario" style="ellipse;whiteSpace=wrap;html=1;align=center;" vertex="1" parent="1">
          <mxGeometry x="1160" y="345" width="100" height="40" as="geometry" />
        </mxCell>
        <mxCell id="lTyuXlJloFRDc_WDD8Is-19" value="Prestamo" style="whiteSpace=wrap;html=1;align=center;" vertex="1" parent="1">
          <mxGeometry x="140" y="380" width="100" height="40" as="geometry" />
        </mxCell>
        <mxCell id="lTyuXlJloFRDc_WDD8Is-20" value="Fecha prestamo" style="ellipse;whiteSpace=wrap;html=1;align=center;" vertex="1" parent="1">
          <mxGeometry x="210" y="480" width="100" height="40" as="geometry" />
        </mxCell>
        <mxCell id="lTyuXlJloFRDc_WDD8Is-21" value="Fecha devolucion" style="ellipse;whiteSpace=wrap;html=1;align=center;" vertex="1" parent="1">
          <mxGeometry x="10" y="470" width="100" height="40" as="geometry" />
        </mxCell>
        <mxCell id="lTyuXlJloFRDc_WDD8Is-22" value="Fecha devolucion real" style="ellipse;whiteSpace=wrap;html=1;align=center;" vertex="1" parent="1">
          <mxGeometry x="90" y="520" width="120" height="50" as="geometry" />
        </mxCell>
        <mxCell id="lTyuXlJloFRDc_WDD8Is-23" value="Nombre" style="ellipse;whiteSpace=wrap;html=1;align=center;" vertex="1" parent="1">
          <mxGeometry x="-50" y="110" width="100" height="40" as="geometry" />
        </mxCell>
        <mxCell id="lTyuXlJloFRDc_WDD8Is-24" value="DNI" style="ellipse;whiteSpace=wrap;html=1;align=center;fontStyle=4;" vertex="1" parent="1">
          <mxGeometry x="-50" y="40" width="100" height="40" as="geometry" />
        </mxCell>
        <mxCell id="lTyuXlJloFRDc_WDD8Is-25" value="Apellidos" style="ellipse;whiteSpace=wrap;html=1;align=center;" vertex="1" parent="1">
          <mxGeometry x="-70" y="170" width="100" height="40" as="geometry" />
        </mxCell>
        <mxCell id="lTyuXlJloFRDc_WDD8Is-27" value="Codigo socio" style="ellipse;whiteSpace=wrap;html=1;align=center;" vertex="1" parent="1">
          <mxGeometry x="-70" y="220" width="100" height="40" as="geometry" />
        </mxCell>
        <mxCell id="lTyuXlJloFRDc_WDD8Is-28" value="Direccion" style="ellipse;whiteSpace=wrap;html=1;align=center;" vertex="1" parent="1">
          <mxGeometry x="-70" y="280" width="100" height="40" as="geometry" />
        </mxCell>
        <mxCell id="lTyuXlJloFRDc_WDD8Is-30" value="Telefono" style="ellipse;whiteSpace=wrap;html=1;align=center;" vertex="1" parent="1">
          <mxGeometry x="-70" y="330" width="100" height="40" as="geometry" />
        </mxCell>
        <mxCell id="lTyuXlJloFRDc_WDD8Is-35" value="" style="edgeStyle=entityRelationEdgeStyle;fontSize=12;html=1;endArrow=ERmany;rounded=0;entryX=1;entryY=0.5;entryDx=0;entryDy=0;exitX=0.25;exitY=1;exitDx=0;exitDy=0;" edge="1" parent="1" source="lTyuXlJloFRDc_WDD8Is-1" target="lTyuXlJloFRDc_WDD8Is-30">
          <mxGeometry width="100" height="100" relative="1" as="geometry">
            <mxPoint x="380" y="380" as="sourcePoint" />
            <mxPoint x="480" y="280" as="targetPoint" />
          </mxGeometry>
        </mxCell>
        <mxCell id="lTyuXlJloFRDc_WDD8Is-36" value="" style="endArrow=none;html=1;rounded=0;exitX=1;exitY=0.5;exitDx=0;exitDy=0;entryX=0;entryY=0.75;entryDx=0;entryDy=0;" edge="1" parent="1" source="lTyuXlJloFRDc_WDD8Is-28" target="lTyuXlJloFRDc_WDD8Is-1">
          <mxGeometry relative="1" as="geometry">
            <mxPoint x="350" y="330" as="sourcePoint" />
            <mxPoint x="510" y="330" as="targetPoint" />
          </mxGeometry>
        </mxCell>
        <mxCell id="lTyuXlJloFRDc_WDD8Is-37" value="" style="endArrow=none;html=1;rounded=0;exitX=1;exitY=0.5;exitDx=0;exitDy=0;entryX=0;entryY=0.5;entryDx=0;entryDy=0;" edge="1" parent="1" source="lTyuXlJloFRDc_WDD8Is-27" target="lTyuXlJloFRDc_WDD8Is-1">
          <mxGeometry relative="1" as="geometry">
            <mxPoint x="40" y="310" as="sourcePoint" />
            <mxPoint x="150" y="220" as="targetPoint" />
          </mxGeometry>
        </mxCell>
        <mxCell id="lTyuXlJloFRDc_WDD8Is-38" value="" style="endArrow=none;html=1;rounded=0;exitX=1;exitY=0.5;exitDx=0;exitDy=0;entryX=0;entryY=0.25;entryDx=0;entryDy=0;" edge="1" parent="1" source="lTyuXlJloFRDc_WDD8Is-25" target="lTyuXlJloFRDc_WDD8Is-1">
          <mxGeometry relative="1" as="geometry">
            <mxPoint x="40" y="250" as="sourcePoint" />
            <mxPoint x="150" y="210" as="targetPoint" />
          </mxGeometry>
        </mxCell>
        <mxCell id="lTyuXlJloFRDc_WDD8Is-39" value="" style="endArrow=none;html=1;rounded=0;exitX=0.94;exitY=0.75;exitDx=0;exitDy=0;exitPerimeter=0;" edge="1" parent="1" source="lTyuXlJloFRDc_WDD8Is-23">
          <mxGeometry relative="1" as="geometry">
            <mxPoint x="40" y="200" as="sourcePoint" />
            <mxPoint x="140" y="180" as="targetPoint" />
          </mxGeometry>
        </mxCell>
        <mxCell id="lTyuXlJloFRDc_WDD8Is-40" value="" style="endArrow=none;html=1;rounded=0;exitX=1;exitY=0.75;exitDx=0;exitDy=0;entryX=0.25;entryY=0;entryDx=0;entryDy=0;exitPerimeter=0;" edge="1" parent="1" source="lTyuXlJloFRDc_WDD8Is-24" target="lTyuXlJloFRDc_WDD8Is-1">
          <mxGeometry relative="1" as="geometry">
            <mxPoint x="54" y="150" as="sourcePoint" />
            <mxPoint x="159" y="193" as="targetPoint" />
          </mxGeometry>
        </mxCell>
        <mxCell id="lTyuXlJloFRDc_WDD8Is-42" value="Crea" style="shape=rhombus;perimeter=rhombusPerimeter;whiteSpace=wrap;html=1;align=center;" vertex="1" parent="1">
          <mxGeometry x="515" y="170" width="120" height="60" as="geometry" />
        </mxCell>
        <mxCell id="lTyuXlJloFRDc_WDD8Is-43" value="" style="endArrow=none;html=1;rounded=0;exitX=0.5;exitY=1;exitDx=0;exitDy=0;entryX=0.5;entryY=0;entryDx=0;entryDy=0;" edge="1" parent="1" source="lTyuXlJloFRDc_WDD8Is-10" target="lTyuXlJloFRDc_WDD8Is-42">
          <mxGeometry relative="1" as="geometry">
            <mxPoint x="400" y="230" as="sourcePoint" />
            <mxPoint x="560" y="230" as="targetPoint" />
          </mxGeometry>
        </mxCell>
        <mxCell id="lTyuXlJloFRDc_WDD8Is-44" value="" style="endArrow=none;html=1;rounded=0;exitX=0.5;exitY=0;exitDx=0;exitDy=0;entryX=0.5;entryY=1;entryDx=0;entryDy=0;" edge="1" parent="1" source="lTyuXlJloFRDc_WDD8Is-2" target="lTyuXlJloFRDc_WDD8Is-42">
          <mxGeometry relative="1" as="geometry">
            <mxPoint x="400" y="230" as="sourcePoint" />
            <mxPoint x="560" y="230" as="targetPoint" />
          </mxGeometry>
        </mxCell>
        <mxCell id="lTyuXlJloFRDc_WDD8Is-45" value="1,n&amp;nbsp;" style="text;strokeColor=none;fillColor=none;spacingLeft=4;spacingRight=4;overflow=hidden;rotatable=0;points=[[0,0.5],[1,0.5]];portConstraint=eastwest;fontSize=12;whiteSpace=wrap;html=1;" vertex="1" parent="1">
          <mxGeometry x="570" y="320" width="40" height="30" as="geometry" />
        </mxCell>
        <mxCell id="lTyuXlJloFRDc_WDD8Is-46" value="1, n" style="text;strokeColor=none;fillColor=none;spacingLeft=4;spacingRight=4;overflow=hidden;rotatable=0;points=[[0,0.5],[1,0.5]];portConstraint=eastwest;fontSize=12;whiteSpace=wrap;html=1;" vertex="1" parent="1">
          <mxGeometry x="580" y="50" width="40" height="30" as="geometry" />
        </mxCell>
        <mxCell id="lTyuXlJloFRDc_WDD8Is-47" value="Solicitar" style="shape=rhombus;perimeter=rhombusPerimeter;whiteSpace=wrap;html=1;align=center;" vertex="1" parent="1">
          <mxGeometry x="130" y="270" width="120" height="60" as="geometry" />
        </mxCell>
        <mxCell id="lTyuXlJloFRDc_WDD8Is-48" value="" style="endArrow=none;html=1;rounded=0;exitX=0.5;exitY=0;exitDx=0;exitDy=0;" edge="1" parent="1" source="lTyuXlJloFRDc_WDD8Is-47" target="lTyuXlJloFRDc_WDD8Is-1">
          <mxGeometry relative="1" as="geometry">
            <mxPoint x="400" y="230" as="sourcePoint" />
            <mxPoint x="560" y="230" as="targetPoint" />
          </mxGeometry>
        </mxCell>
        <mxCell id="lTyuXlJloFRDc_WDD8Is-49" value="" style="endArrow=none;html=1;rounded=0;exitX=0.5;exitY=0;exitDx=0;exitDy=0;entryX=0.5;entryY=1;entryDx=0;entryDy=0;" edge="1" parent="1" source="lTyuXlJloFRDc_WDD8Is-19" target="lTyuXlJloFRDc_WDD8Is-47">
          <mxGeometry relative="1" as="geometry">
            <mxPoint x="400" y="230" as="sourcePoint" />
            <mxPoint x="560" y="230" as="targetPoint" />
          </mxGeometry>
        </mxCell>
        <mxCell id="lTyuXlJloFRDc_WDD8Is-50" value="1, n" style="text;strokeColor=none;fillColor=none;spacingLeft=4;spacingRight=4;overflow=hidden;rotatable=0;points=[[0,0.5],[1,0.5]];portConstraint=eastwest;fontSize=12;whiteSpace=wrap;html=1;" vertex="1" parent="1">
          <mxGeometry x="190" y="350" width="40" height="30" as="geometry" />
        </mxCell>
        <mxCell id="lTyuXlJloFRDc_WDD8Is-51" value="1, 1" style="text;strokeColor=none;fillColor=none;spacingLeft=4;spacingRight=4;overflow=hidden;rotatable=0;points=[[0,0.5],[1,0.5]];portConstraint=eastwest;fontSize=12;whiteSpace=wrap;html=1;" vertex="1" parent="1">
          <mxGeometry x="190" y="220" width="40" height="30" as="geometry" />
        </mxCell>
        <mxCell id="lTyuXlJloFRDc_WDD8Is-52" value="Prestar" style="shape=rhombus;perimeter=rhombusPerimeter;whiteSpace=wrap;html=1;align=center;" vertex="1" parent="1">
          <mxGeometry x="320" y="370" width="120" height="60" as="geometry" />
        </mxCell>
        <mxCell id="lTyuXlJloFRDc_WDD8Is-53" value="" style="endArrow=none;html=1;rounded=0;exitX=1;exitY=0.5;exitDx=0;exitDy=0;entryX=0;entryY=0.5;entryDx=0;entryDy=0;" edge="1" parent="1" source="lTyuXlJloFRDc_WDD8Is-19" target="lTyuXlJloFRDc_WDD8Is-52">
          <mxGeometry relative="1" as="geometry">
            <mxPoint x="400" y="330" as="sourcePoint" />
            <mxPoint x="560" y="330" as="targetPoint" />
          </mxGeometry>
        </mxCell>
        <mxCell id="lTyuXlJloFRDc_WDD8Is-54" value="" style="endArrow=none;html=1;rounded=0;exitX=1;exitY=0.5;exitDx=0;exitDy=0;entryX=0;entryY=0.5;entryDx=0;entryDy=0;" edge="1" parent="1" source="lTyuXlJloFRDc_WDD8Is-52" target="lTyuXlJloFRDc_WDD8Is-2">
          <mxGeometry relative="1" as="geometry">
            <mxPoint x="400" y="330" as="sourcePoint" />
            <mxPoint x="560" y="330" as="targetPoint" />
          </mxGeometry>
        </mxCell>
        <mxCell id="lTyuXlJloFRDc_WDD8Is-55" value="1, n" style="text;strokeColor=none;fillColor=none;spacingLeft=4;spacingRight=4;overflow=hidden;rotatable=0;points=[[0,0.5],[1,0.5]];portConstraint=eastwest;fontSize=12;whiteSpace=wrap;html=1;" vertex="1" parent="1">
          <mxGeometry x="485" y="370" width="40" height="30" as="geometry" />
        </mxCell>
        <mxCell id="lTyuXlJloFRDc_WDD8Is-56" value="0, 1" style="text;strokeColor=none;fillColor=none;spacingLeft=4;spacingRight=4;overflow=hidden;rotatable=0;points=[[0,0.5],[1,0.5]];portConstraint=eastwest;fontSize=12;whiteSpace=wrap;html=1;" vertex="1" parent="1">
          <mxGeometry x="240" y="370" width="40" height="30" as="geometry" />
        </mxCell>
        <mxCell id="lTyuXlJloFRDc_WDD8Is-57" value="ID" style="ellipse;whiteSpace=wrap;html=1;align=center;fontStyle=4;" vertex="1" parent="1">
          <mxGeometry x="-20" y="400" width="100" height="40" as="geometry" />
        </mxCell>
        <mxCell id="lTyuXlJloFRDc_WDD8Is-58" value="" style="endArrow=none;html=1;rounded=0;exitX=1;exitY=0;exitDx=0;exitDy=0;entryX=0;entryY=0.5;entryDx=0;entryDy=0;" edge="1" parent="1" source="lTyuXlJloFRDc_WDD8Is-57" target="lTyuXlJloFRDc_WDD8Is-19">
          <mxGeometry relative="1" as="geometry">
            <mxPoint x="400" y="430" as="sourcePoint" />
            <mxPoint x="560" y="430" as="targetPoint" />
          </mxGeometry>
        </mxCell>
        <mxCell id="lTyuXlJloFRDc_WDD8Is-60" value="Relationship" style="shape=rhombus;perimeter=rhombusPerimeter;whiteSpace=wrap;html=1;align=center;" vertex="1" parent="1">
          <mxGeometry x="740" y="370" width="120" height="60" as="geometry" />
        </mxCell>
        <mxCell id="lTyuXlJloFRDc_WDD8Is-63" value="" style="endArrow=none;html=1;rounded=0;exitX=1;exitY=0.5;exitDx=0;exitDy=0;entryX=0;entryY=0.5;entryDx=0;entryDy=0;" edge="1" parent="1" source="lTyuXlJloFRDc_WDD8Is-2" target="lTyuXlJloFRDc_WDD8Is-60">
          <mxGeometry relative="1" as="geometry">
            <mxPoint x="400" y="430" as="sourcePoint" />
            <mxPoint x="560" y="430" as="targetPoint" />
          </mxGeometry>
        </mxCell>
        <mxCell id="lTyuXlJloFRDc_WDD8Is-64" value="" style="endArrow=none;html=1;rounded=0;exitX=1;exitY=0.5;exitDx=0;exitDy=0;entryX=0;entryY=0.5;entryDx=0;entryDy=0;" edge="1" parent="1" source="lTyuXlJloFRDc_WDD8Is-60">
          <mxGeometry relative="1" as="geometry">
            <mxPoint x="865" y="400" as="sourcePoint" />
            <mxPoint x="980" y="400" as="targetPoint" />
          </mxGeometry>
        </mxCell>
        <mxCell id="lTyuXlJloFRDc_WDD8Is-66" value="0, n" style="text;strokeColor=none;fillColor=none;spacingLeft=4;spacingRight=4;overflow=hidden;rotatable=0;points=[[0,0.5],[1,0.5]];portConstraint=eastwest;fontSize=12;whiteSpace=wrap;html=1;" vertex="1" parent="1">
          <mxGeometry x="940" y="370" width="40" height="30" as="geometry" />
        </mxCell>
        <mxCell id="lTyuXlJloFRDc_WDD8Is-67" value="ID" style="ellipse;whiteSpace=wrap;html=1;align=center;fontStyle=4;" vertex="1" parent="1">
          <mxGeometry x="1120" y="280" width="100" height="40" as="geometry" />
        </mxCell>
        <mxCell id="lTyuXlJloFRDc_WDD8Is-68" value="" style="endArrow=none;html=1;rounded=0;exitX=0.75;exitY=0;exitDx=0;exitDy=0;entryX=0;entryY=1;entryDx=0;entryDy=0;" edge="1" parent="1" source="lTyuXlJloFRDc_WDD8Is-16" target="lTyuXlJloFRDc_WDD8Is-67">
          <mxGeometry relative="1" as="geometry">
            <mxPoint x="970" y="430" as="sourcePoint" />
            <mxPoint x="1130" y="430" as="targetPoint" />
          </mxGeometry>
        </mxCell>
        <mxCell id="lTyuXlJloFRDc_WDD8Is-69" value="" style="endArrow=none;html=1;rounded=0;exitX=1;exitY=0.5;exitDx=0;exitDy=0;entryX=0;entryY=0.5;entryDx=0;entryDy=0;" edge="1" parent="1" source="lTyuXlJloFRDc_WDD8Is-16" target="lTyuXlJloFRDc_WDD8Is-18">
          <mxGeometry relative="1" as="geometry">
            <mxPoint x="970" y="430" as="sourcePoint" />
            <mxPoint x="1130" y="430" as="targetPoint" />
          </mxGeometry>
        </mxCell>
        <mxCell id="lTyuXlJloFRDc_WDD8Is-70" value="" style="endArrow=none;html=1;rounded=0;exitX=1;exitY=1;exitDx=0;exitDy=0;" edge="1" parent="1" source="lTyuXlJloFRDc_WDD8Is-16" target="lTyuXlJloFRDc_WDD8Is-17">
          <mxGeometry relative="1" as="geometry">
            <mxPoint x="970" y="430" as="sourcePoint" />
            <mxPoint x="1130" y="430" as="targetPoint" />
          </mxGeometry>
        </mxCell>
        <mxCell id="lTyuXlJloFRDc_WDD8Is-71" value="1, 1" style="text;strokeColor=none;fillColor=none;spacingLeft=4;spacingRight=4;overflow=hidden;rotatable=0;points=[[0,0.5],[1,0.5]];portConstraint=eastwest;fontSize=12;whiteSpace=wrap;html=1;" vertex="1" parent="1">
          <mxGeometry x="625" y="370" width="40" height="30" as="geometry" />
        </mxCell>
        <mxCell id="lTyuXlJloFRDc_WDD8Is-72" value="" style="endArrow=none;html=1;rounded=0;exitX=0.69;exitY=0.1;exitDx=0;exitDy=0;exitPerimeter=0;entryX=0.16;entryY=0.975;entryDx=0;entryDy=0;entryPerimeter=0;" edge="1" parent="1" source="lTyuXlJloFRDc_WDD8Is-21" target="lTyuXlJloFRDc_WDD8Is-19">
          <mxGeometry relative="1" as="geometry">
            <mxPoint x="420" y="380" as="sourcePoint" />
            <mxPoint x="580" y="380" as="targetPoint" />
          </mxGeometry>
        </mxCell>
        <mxCell id="lTyuXlJloFRDc_WDD8Is-73" value="" style="endArrow=none;html=1;rounded=0;exitX=0.5;exitY=0;exitDx=0;exitDy=0;entryX=0.5;entryY=1;entryDx=0;entryDy=0;" edge="1" parent="1" source="lTyuXlJloFRDc_WDD8Is-22" target="lTyuXlJloFRDc_WDD8Is-19">
          <mxGeometry relative="1" as="geometry">
            <mxPoint x="420" y="380" as="sourcePoint" />
            <mxPoint x="580" y="380" as="targetPoint" />
          </mxGeometry>
        </mxCell>
        <mxCell id="lTyuXlJloFRDc_WDD8Is-74" value="" style="endArrow=none;html=1;rounded=0;exitX=0.37;exitY=0;exitDx=0;exitDy=0;exitPerimeter=0;entryX=0.75;entryY=1;entryDx=0;entryDy=0;" edge="1" parent="1" source="lTyuXlJloFRDc_WDD8Is-20" target="lTyuXlJloFRDc_WDD8Is-19">
          <mxGeometry relative="1" as="geometry">
            <mxPoint x="420" y="380" as="sourcePoint" />
            <mxPoint x="580" y="380" as="targetPoint" />
          </mxGeometry>
        </mxCell>
        <mxCell id="lTyuXlJloFRDc_WDD8Is-75" value="" style="endArrow=none;html=1;rounded=0;entryX=0;entryY=0;entryDx=0;entryDy=0;exitX=1;exitY=0.75;exitDx=0;exitDy=0;" edge="1" parent="1" source="lTyuXlJloFRDc_WDD8Is-2" target="lTyuXlJloFRDc_WDD8Is-7">
          <mxGeometry relative="1" as="geometry">
            <mxPoint x="630" y="410" as="sourcePoint" />
            <mxPoint x="650" y="410" as="targetPoint" />
          </mxGeometry>
        </mxCell>
        <mxCell id="lTyuXlJloFRDc_WDD8Is-76" value="" style="triangle;whiteSpace=wrap;html=1;rotation=90;" vertex="1" parent="1">
          <mxGeometry x="560" y="460" width="30" height="60" as="geometry" />
        </mxCell>
        <mxCell id="lTyuXlJloFRDc_WDD8Is-78" value="" style="endArrow=none;html=1;rounded=0;strokeColor=default;edgeStyle=orthogonalEdgeStyle;curved=1;strokeWidth=1;" edge="1" parent="1">
          <mxGeometry width="50" height="50" relative="1" as="geometry">
            <mxPoint x="485" y="520" as="sourcePoint" />
            <mxPoint x="655" y="520" as="targetPoint" />
            <Array as="points">
              <mxPoint x="485" y="550" />
              <mxPoint x="655" y="550" />
            </Array>
          </mxGeometry>
        </mxCell>
        <mxCell id="lTyuXlJloFRDc_WDD8Is-79" value="" style="endArrow=none;html=1;rounded=0;exitX=0;exitY=0.5;exitDx=0;exitDy=0;entryX=0.5;entryY=1;entryDx=0;entryDy=0;" edge="1" parent="1" source="lTyuXlJloFRDc_WDD8Is-76" target="lTyuXlJloFRDc_WDD8Is-2">
          <mxGeometry width="50" height="50" relative="1" as="geometry">
            <mxPoint x="550" y="430" as="sourcePoint" />
            <mxPoint x="600" y="380" as="targetPoint" />
          </mxGeometry>
        </mxCell>
        <mxCell id="lTyuXlJloFRDc_WDD8Is-80" value="" style="endArrow=none;html=1;rounded=0;exitX=0;exitY=0.5;exitDx=0;exitDy=0;entryX=0.5;entryY=1;entryDx=0;entryDy=0;" edge="1" parent="1" target="lTyuXlJloFRDc_WDD8Is-76">
          <mxGeometry width="50" height="50" relative="1" as="geometry">
            <mxPoint x="469.5" y="610" as="sourcePoint" />
            <mxPoint x="469.5" y="555" as="targetPoint" />
          </mxGeometry>
        </mxCell>
        <mxCell id="lTyuXlJloFRDc_WDD8Is-81" value="" style="endArrow=none;html=1;rounded=0;exitX=0.5;exitY=0;exitDx=0;exitDy=0;entryX=0.5;entryY=1;entryDx=0;entryDy=0;" edge="1" parent="1" source="lTyuXlJloFRDc_WDD8Is-4">
          <mxGeometry width="50" height="50" relative="1" as="geometry">
            <mxPoint x="574.5" y="557.5" as="sourcePoint" />
            <mxPoint x="574.5" y="502.5" as="targetPoint" />
          </mxGeometry>
        </mxCell>
        <mxCell id="lTyuXlJloFRDc_WDD8Is-82" value="" style="endArrow=none;html=1;rounded=0;exitX=0.25;exitY=0;exitDx=0;exitDy=0;entryX=0.5;entryY=0;entryDx=0;entryDy=0;" edge="1" parent="1" source="lTyuXlJloFRDc_WDD8Is-3" target="lTyuXlJloFRDc_WDD8Is-76">
          <mxGeometry width="50" height="50" relative="1" as="geometry">
            <mxPoint x="605" y="505" as="sourcePoint" />
            <mxPoint x="605" y="450" as="targetPoint" />
          </mxGeometry>
        </mxCell>
        <mxCell id="lTyuXlJloFRDc_WDD8Is-83" value="" style="endArrow=none;html=1;rounded=0;entryX=0.09;entryY=0.15;entryDx=0;entryDy=0;exitX=0.94;exitY=0.975;exitDx=0;exitDy=0;exitPerimeter=0;entryPerimeter=0;" edge="1" parent="1" source="lTyuXlJloFRDc_WDD8Is-2" target="lTyuXlJloFRDc_WDD8Is-8">
          <mxGeometry relative="1" as="geometry">
            <mxPoint x="635" y="420" as="sourcePoint" />
            <mxPoint x="695" y="426" as="targetPoint" />
          </mxGeometry>
        </mxCell>
        <mxCell id="lTyuXlJloFRDc_WDD8Is-84" value="" style="endArrow=none;html=1;rounded=0;entryX=0;entryY=1;entryDx=0;entryDy=0;" edge="1" parent="1" source="lTyuXlJloFRDc_WDD8Is-9" target="lTyuXlJloFRDc_WDD8Is-2">
          <mxGeometry width="50" height="50" relative="1" as="geometry">
            <mxPoint x="550" y="430" as="sourcePoint" />
            <mxPoint x="600" y="380" as="targetPoint" />
          </mxGeometry>
        </mxCell>
        <mxCell id="lTyuXlJloFRDc_WDD8Is-85" value="" style="endArrow=none;html=1;rounded=0;exitX=0.5;exitY=0;exitDx=0;exitDy=0;entryX=0.5;entryY=1;entryDx=0;entryDy=0;" edge="1" parent="1" source="lTyuXlJloFRDc_WDD8Is-13" target="lTyuXlJloFRDc_WDD8Is-5">
          <mxGeometry width="50" height="50" relative="1" as="geometry">
            <mxPoint x="550" y="430" as="sourcePoint" />
            <mxPoint x="600" y="380" as="targetPoint" />
          </mxGeometry>
        </mxCell>
        <mxCell id="lTyuXlJloFRDc_WDD8Is-86" value="" style="endArrow=none;html=1;rounded=0;exitX=0.5;exitY=0;exitDx=0;exitDy=0;entryX=0.5;entryY=1;entryDx=0;entryDy=0;" edge="1" parent="1" source="lTyuXlJloFRDc_WDD8Is-14" target="lTyuXlJloFRDc_WDD8Is-4">
          <mxGeometry width="50" height="50" relative="1" as="geometry">
            <mxPoint x="550" y="430" as="sourcePoint" />
            <mxPoint x="600" y="380" as="targetPoint" />
          </mxGeometry>
        </mxCell>
        <mxCell id="lTyuXlJloFRDc_WDD8Is-87" value="" style="endArrow=none;html=1;rounded=0;entryX=0.44;entryY=0.975;entryDx=0;entryDy=0;entryPerimeter=0;" edge="1" parent="1" source="lTyuXlJloFRDc_WDD8Is-15" target="lTyuXlJloFRDc_WDD8Is-3">
          <mxGeometry width="50" height="50" relative="1" as="geometry">
            <mxPoint x="590" y="690" as="sourcePoint" />
            <mxPoint x="590" y="660" as="targetPoint" />
          </mxGeometry>
        </mxCell>
        <mxCell id="lTyuXlJloFRDc_WDD8Is-89" value="0, 1" style="text;strokeColor=none;fillColor=none;spacingLeft=4;spacingRight=4;overflow=hidden;rotatable=0;points=[[0,0.5],[1,0.5]];portConstraint=eastwest;fontSize=12;whiteSpace=wrap;html=1;" vertex="1" parent="1">
          <mxGeometry x="585" y="585" width="40" height="30" as="geometry" />
        </mxCell>
        <mxCell id="lTyuXlJloFRDc_WDD8Is-90" value="0, 1" style="text;strokeColor=none;fillColor=none;spacingLeft=4;spacingRight=4;overflow=hidden;rotatable=0;points=[[0,0.5],[1,0.5]];portConstraint=eastwest;fontSize=12;whiteSpace=wrap;html=1;" vertex="1" parent="1">
          <mxGeometry x="485" y="585" width="40" height="30" as="geometry" />
        </mxCell>
        <mxCell id="lTyuXlJloFRDc_WDD8Is-91" value="0, 1" style="text;strokeColor=none;fillColor=none;spacingLeft=4;spacingRight=4;overflow=hidden;rotatable=0;points=[[0,0.5],[1,0.5]];portConstraint=eastwest;fontSize=12;whiteSpace=wrap;html=1;" vertex="1" parent="1">
          <mxGeometry x="692.5" y="585" width="40" height="30" as="geometry" />
        </mxCell>
        <mxCell id="lTyuXlJloFRDc_WDD8Is-92" value="1, 1" style="text;strokeColor=none;fillColor=none;spacingLeft=4;spacingRight=4;overflow=hidden;rotatable=0;points=[[0,0.5],[1,0.5]];portConstraint=eastwest;fontSize=12;whiteSpace=wrap;html=1;" vertex="1" parent="1">
          <mxGeometry x="570" y="420" width="40" height="30" as="geometry" />
        </mxCell>
        <mxCell id="lTyuXlJloFRDc_WDD8Is-93" value="" style="endArrow=none;html=1;rounded=0;exitX=0.675;exitY=1;exitDx=0;exitDy=0;exitPerimeter=0;entryX=0.25;entryY=0;entryDx=0;entryDy=0;" edge="1" parent="1" source="lTyuXlJloFRDc_WDD8Is-11" target="lTyuXlJloFRDc_WDD8Is-10">
          <mxGeometry relative="1" as="geometry">
            <mxPoint x="490" y="310" as="sourcePoint" />
            <mxPoint x="650" y="310" as="targetPoint" />
          </mxGeometry>
        </mxCell>
        <mxCell id="lTyuXlJloFRDc_WDD8Is-94" value="" style="endArrow=none;html=1;rounded=0;entryX=0.5;entryY=1;entryDx=0;entryDy=0;exitX=0.75;exitY=0;exitDx=0;exitDy=0;" edge="1" parent="1" source="lTyuXlJloFRDc_WDD8Is-10" target="lTyuXlJloFRDc_WDD8Is-12">
          <mxGeometry relative="1" as="geometry">
            <mxPoint x="490" y="310" as="sourcePoint" />
            <mxPoint x="650" y="310" as="targetPoint" />
          </mxGeometry>
        </mxCell>
      </root>
    </mxGraphModel>
  </diagram>
</mxfile>
